<svg width="750" height="750" viewBox="0 0 750 750" fill="none" xmlns="http://www.w3.org/2000/svg">
<path d="M373.575 729.074C568.761 729.074 726.99 637.72 726.99 525.029C726.99 412.338 568.761 320.984 373.575 320.984C178.389 320.984 20.16 412.338 20.16 525.029C20.16 637.72 178.389 729.074 373.575 729.074Z" fill="#F0F0F0"/>
<path d="M576.54 595.829C553.365 582.449 553.365 560.759 576.54 547.379C599.715 533.999 637.29 533.999 660.465 547.379C683.64 560.759 683.64 582.449 660.465 595.829C637.29 609.209 599.715 609.209 576.54 595.829Z" fill="#E0E0E0"/>
<path d="M105.18 597.689L44.22 562.499C40.785 560.519 40.785 557.294 44.22 555.314L398.805 350.594C402.24 348.614 407.82 348.614 411.255 350.594L472.215 385.784C475.65 387.764 475.65 390.989 472.215 392.969L117.63 597.689C114.18 599.669 108.615 599.669 105.18 597.689Z" fill="#E0E0E0"/>
<path d="M324.3 534.959L376.71 504.659C382.11 501.539 384.81 497.459 384.81 493.364C384.81 489.269 384.84 486.074 384.84 486.074L330.465 455.414C327.585 453.749 325.245 449.699 325.245 446.384V381.779L233.715 434.669V499.274C233.715 502.604 236.055 506.639 238.935 508.304L285.195 534.959C295.98 541.199 313.5 541.199 324.3 534.959Z" fill="#27DEBF"/>
<g opacity="0.6">
<path d="M324.3 534.959L376.71 504.659C382.11 501.539 384.81 497.459 384.81 493.364C384.81 489.269 384.84 486.074 384.84 486.074L330.465 455.414C327.585 453.749 325.245 449.699 325.245 446.384V381.779L233.715 434.669V499.274C233.715 502.604 236.055 506.639 238.935 508.304L285.195 534.959C295.98 541.199 313.5 541.199 324.3 534.959Z" fill="black"/>
</g>
<path opacity="0.3" d="M255.675 510.719V517.979L238.905 508.303C236.04 506.653 233.7 502.604 233.7 499.274V434.669L251.145 424.604C251.505 429.029 251.895 433.603 252.255 438.073L240.03 445.153V495.629C240.03 498.974 242.355 503.009 245.235 504.659L255.675 510.719Z" fill="black"/>
<path d="M240.015 495.644C240.015 498.974 242.355 503.009 245.235 504.674L285.165 527.669C295.965 533.909 313.485 533.909 324.3 527.669L376.725 497.369C387.525 491.129 387.525 481.019 376.725 474.779L336.765 451.754C333.885 450.089 331.545 446.039 331.545 442.724V392.234L240.015 445.124V495.644Z" fill="#27DEBF"/>
<path opacity="0.3" d="M240.015 495.644C240.015 498.974 242.355 503.009 245.235 504.674L285.165 527.669C295.965 533.909 313.485 533.909 324.3 527.669L376.725 497.369C387.525 491.129 387.525 481.019 376.725 474.779L336.765 451.754C333.885 450.089 331.545 446.039 331.545 442.724V392.234L240.015 445.124V495.644Z" fill="black"/>
<path opacity="0.5" d="M347.4 457.919L336.78 451.784C333.9 450.119 331.56 446.069 331.56 442.754V392.264L240.03 445.154V495.644C240.03 498.974 242.37 503.009 245.25 504.674L255.69 510.704L347.4 457.919Z" fill="black"/>
<path d="M384.825 486.09C384.825 486.09 384.825 489.285 384.825 493.38C384.825 497.475 382.11 501.54 376.725 504.675L324.315 534.96C319.14 537.975 312.42 539.475 305.64 539.595V532.335C312.42 532.245 319.14 530.685 324.315 527.7L376.725 497.385C382.11 494.28 384.825 490.185 384.825 486.09Z" fill="#27DEBF"/>
<path opacity="0.5" d="M384.825 486.09C384.825 486.09 384.825 489.285 384.825 493.38C384.825 497.475 382.11 501.54 376.725 504.675L324.315 534.96C319.14 537.975 312.42 539.475 305.64 539.595V532.335C312.42 532.245 319.14 530.685 324.315 527.7L376.725 497.385C382.11 494.28 384.825 490.185 384.825 486.09Z" fill="black"/>
<path d="M93.045 558.39C96.42 560.34 102.075 560.235 105.69 558.15C150.69 532.17 414.69 379.755 459.69 353.775C463.29 351.69 466.215 346.635 466.215 342.48V56.115C466.215 51.96 463.47 47.01 460.095 45.06C456.72 43.11 451.065 43.215 447.45 45.3L93.45 249.675C89.85 251.76 86.925 256.815 86.925 260.97V547.335C86.925 551.49 89.67 556.44 93.045 558.39Z" fill="#27DEBF"/>
<path d="M105.69 558.15L459.69 353.774C463.29 351.689 466.215 346.634 466.215 342.479V56.1145C466.215 51.9595 463.29 50.2645 459.69 52.3495L105.69 256.724C102.09 258.809 99.165 263.864 99.165 268.019V554.384C99.165 558.539 102.09 560.234 105.69 558.15Z" fill="#27DEBF"/>
<path opacity="0.5" d="M105.69 558.15L459.69 353.774C463.29 351.689 466.215 346.634 466.215 342.479V56.1145C466.215 51.9595 463.29 50.2645 459.69 52.3495L105.69 256.724C102.09 258.809 99.165 263.864 99.165 268.019V554.384C99.165 558.539 102.09 560.234 105.69 558.15Z" fill="black"/>
<path d="M104.73 565.59C101.115 567.18 96.12 567.12 93.045 565.35C89.67 563.385 86.925 558.45 86.925 554.265V528.195L99.15 535.275V561.345C99.15 565.14 101.565 566.865 104.73 565.59Z" fill="#27DEBF"/>
<path opacity="0.5" d="M104.73 565.59C101.115 567.18 96.12 567.12 93.045 565.35C89.67 563.385 86.925 558.45 86.925 554.265V528.195L99.15 535.275V561.345C99.15 565.14 101.565 566.865 104.73 565.59Z" fill="black"/>
<path d="M99.15 535.274L99.165 561.344C99.165 565.499 102.09 567.194 105.69 565.109L459.69 360.734C463.29 358.649 466.215 353.594 466.215 349.439V323.324L99.15 535.274Z" fill="#27DEBF"/>
<path opacity="0.3" d="M99.165 535.216V561.331C99.165 565.486 102.09 567.181 105.69 565.096L459.69 360.721C463.29 358.636 466.215 353.581 466.215 349.426V323.311L99.165 535.216Z" fill="black"/>
<path d="M111.39 502.56V272.07C111.39 269.581 113.145 266.535 115.305 265.29L450.045 72.0455C452.205 70.8005 453.96 71.8055 453.96 74.3105L453.975 304.8C453.975 307.29 452.22 310.335 450.06 311.581L115.305 504.825C113.145 506.07 111.39 505.05 111.39 502.56Z" fill="#27DEBF"/>
<path d="M111.39 502.56V272.07C111.39 269.581 113.145 266.535 115.305 265.29L450.045 72.0455C452.205 70.8005 453.96 71.8055 453.96 74.3105L453.975 304.8C453.975 307.29 452.22 310.335 450.06 311.581L115.305 504.825C113.145 506.07 111.39 505.05 111.39 502.56Z" fill="#263238"/>
<path d="M282.675 437.594C279.3 439.544 276.555 444.284 276.555 448.199C276.555 452.099 279.3 453.689 282.675 451.724C286.05 449.774 288.795 445.034 288.795 441.119C288.795 437.219 286.05 435.644 282.675 437.594Z" fill="#27DEBF"/>
<path opacity="0.7" d="M101.085 261.571C99.915 263.626 99.195 265.936 99.165 268.021V535.276L86.94 528.196V260.956C86.94 258.871 87.69 256.561 88.86 254.506L101.085 261.571Z" fill="black"/>
<path opacity="0.3" d="M466.14 55.0348C465.675 51.6748 462.96 50.4598 459.675 52.3348L105.69 256.725C103.905 257.76 102.285 259.515 101.085 261.57L88.86 254.505C90.045 252.48 91.665 250.695 93.465 249.66L447.45 45.2998C451.065 43.2148 456.705 43.1098 460.095 45.0748C463.17 46.8298 465.72 51.1348 466.14 55.0348Z" fill="black"/>
<path d="M485.235 90.2847C484.38 89.7747 483.225 89.7897 481.905 90.5547L147.885 283.425C145.365 284.88 143.31 288.42 143.31 291.33V520.41C143.31 522.18 144.075 523.755 145.23 524.385C145.98 524.79 149.895 527.07 151.065 527.7C151.815 528.105 152.73 528.12 153.72 527.55L487.74 334.59C490.26 333.135 492.315 329.595 492.315 326.685V96.4947C492.315 94.9947 491.775 93.9447 490.905 93.4947C490.08 93.0597 486.075 90.7797 485.235 90.2847Z" fill="#27DEBF"/>
<path d="M152.22 527.235C150.945 527.235 149.91 525.66 149.91 523.725V294.645C149.91 292.02 151.83 288.69 154.11 287.385L488.13 94.4996C488.73 94.1546 489.3 93.9746 489.795 93.9746C490.905 93.9746 491.58 94.9196 491.58 96.4796V326.67C491.58 329.295 489.66 332.625 487.38 333.93L153.345 526.89C152.955 527.115 152.58 527.235 152.22 527.235Z" fill="#FAFAFA"/>
<path d="M489.795 94.7246C490.695 94.7246 490.83 95.8346 490.83 96.4796V326.67C490.83 329.055 489.075 332.085 487.005 333.285L152.97 526.245C152.685 526.41 152.43 526.485 152.205 526.485C151.365 526.485 150.645 525.195 150.645 523.725V294.645C150.645 292.26 152.4 289.23 154.47 288.03L488.505 95.1596C489.105 94.7996 489.54 94.7246 489.795 94.7246ZM489.795 93.2246C489.18 93.2246 488.49 93.4196 487.755 93.8546L153.72 286.74C151.2 288.195 149.145 291.735 149.145 294.66V523.74C149.145 526.05 150.42 528 152.205 528C152.685 528 153.18 527.865 153.72 527.565L487.74 334.605C490.26 333.15 492.315 329.61 492.315 326.7V96.4946C492.315 94.4246 491.295 93.2246 489.795 93.2246Z" fill="#E0E0E0"/>
<path d="M145.23 524.385C145.725 524.655 149.28 526.68 150.84 527.565C149.79 526.815 149.235 525.525 149.16 523.725V309.6L143.31 306.18V520.425C143.31 522.18 144.075 523.77 145.23 524.385Z" fill="#F0F0F0"/>
<path d="M492.315 96.4489C492.3 93.5689 490.26 92.3989 487.755 93.8389L153.72 286.739C151.2 288.194 149.145 291.734 149.145 294.659V309.599L492.315 111.449V96.4489Z" fill="#27DEBF"/>
<g opacity="0.4">
<path d="M487.755 93.8541L153.72 286.724C152.475 287.459 151.32 288.689 150.495 290.114L144.69 286.754C145.515 285.344 146.64 284.114 147.87 283.424L481.905 90.5391C483.21 89.7741 484.38 89.7591 485.22 90.2691C486.045 90.7791 489.84 92.9241 490.8 93.4491C490.005 93.0591 488.925 93.1791 487.755 93.8541Z" fill="white"/>
</g>
<path opacity="0.15" d="M143.31 306.195V291.345C143.31 289.86 143.85 288.225 144.705 286.77L150.525 290.115C149.67 291.555 149.16 293.175 149.16 294.66V309.6L143.31 306.195Z" fill="black"/>
<path d="M421.875 269.129L221.82 384.629C219.975 385.694 218.475 388.289 218.475 390.419V447.779C218.475 449.909 219.975 452.489 221.82 453.554L227.67 456.914C229.515 457.979 232.5 457.979 234.345 456.914L434.385 341.429C436.23 340.364 437.73 337.769 437.73 335.639L437.76 278.264C437.76 276.134 436.26 273.554 434.415 272.489L428.565 269.129C426.705 268.064 423.72 268.064 421.875 269.129Z" fill="#27DEBF"/>
<path opacity="0.5" d="M437.715 277.724C437.49 275.999 436.08 275.369 434.4 276.329L234.345 391.829C233.415 392.354 232.59 393.284 231.99 394.334L219.465 387.104C220.065 386.069 220.905 385.154 221.805 384.644L421.875 269.144C423.705 268.079 426.705 268.064 428.55 269.129L434.4 272.489C436.095 273.464 437.505 275.729 437.715 277.724Z" fill="white"/>
<path d="M233.775 457.184C231.93 457.964 229.335 457.874 227.67 456.929L221.82 453.569C219.975 452.504 218.475 449.909 218.475 447.779V390.434C218.475 389.354 218.865 388.169 219.465 387.119L231.99 394.349C231.375 395.399 231 396.569 231 397.634V454.994C231 456.899 232.2 457.784 233.775 457.184Z" fill="#263238"/>
<path d="M234.345 391.844L434.4 276.343C436.245 275.278 437.745 276.148 437.73 278.278L437.7 335.653C437.7 337.784 436.2 340.379 434.355 341.444L234.315 456.928C232.47 457.993 230.97 457.123 230.97 454.993V397.633C231 395.503 232.5 392.909 234.345 391.844Z" fill="#27DEBF"/>
<path d="M368.835 299.76L221.805 384.645C220.89 385.17 220.065 386.085 219.465 387.105L231.99 394.335C232.59 393.285 233.43 392.355 234.345 391.83L381.345 306.96L368.835 299.76Z" fill="#455A64"/>
<path d="M381.345 306.975L234.345 391.845C232.5 392.91 231 395.505 231 397.635V454.995C231 457.125 232.5 457.98 234.345 456.93L381.345 372.06V306.975Z" fill="#37474F"/>
<path d="M268.245 384.868L344.1 341.068C347.25 339.253 349.8 340.543 349.8 343.948C349.8 347.353 347.25 351.583 344.1 353.398L268.26 397.183C265.11 398.998 262.56 397.708 262.56 394.303C262.545 390.913 265.095 386.683 268.245 384.868Z" fill="#27DEBF"/>
<path d="M283.785 399.359C283.875 399.314 283.95 399.329 284.01 399.404C284.07 399.479 284.1 399.584 284.1 399.749V408.284C284.1 409.139 284.025 409.964 283.89 410.744C283.755 411.524 283.545 412.244 283.26 412.904C282.975 413.564 282.63 414.149 282.21 414.674C281.79 415.184 281.295 415.604 280.74 415.919C280.17 416.249 279.69 416.399 279.27 416.369C278.85 416.339 278.505 416.159 278.22 415.814C277.935 415.484 277.725 415.004 277.59 414.389C277.455 413.774 277.38 413.039 277.38 412.169V403.634C277.38 403.484 277.41 403.334 277.47 403.184C277.53 403.034 277.605 402.944 277.695 402.884L278.64 402.329C278.73 402.284 278.805 402.284 278.865 402.374C278.925 402.449 278.955 402.569 278.955 402.719V411.164C278.955 411.734 279 412.199 279.09 412.544C279.18 412.904 279.3 413.159 279.45 413.324C279.6 413.489 279.795 413.564 280.02 413.564C280.245 413.549 280.485 413.474 280.74 413.324C280.995 413.174 281.235 412.979 281.46 412.724C281.685 412.484 281.88 412.184 282.03 411.839C282.18 411.494 282.315 411.089 282.405 410.639C282.495 410.189 282.54 409.679 282.54 409.109V400.679C282.54 400.529 282.57 400.379 282.63 400.229C282.69 400.079 282.765 399.989 282.855 399.929L283.785 399.359Z" fill="#FAFAFA"/>
<path d="M289.665 407.428C289.665 407.278 289.635 407.173 289.575 407.098C289.515 407.038 289.425 406.993 289.29 406.993C289.155 406.993 288.975 407.008 288.75 407.053C288.525 407.098 288.24 407.158 287.88 407.218C287.535 407.278 287.25 407.263 287.025 407.188C286.8 407.113 286.62 406.978 286.485 406.768C286.35 406.573 286.26 406.303 286.2 405.988C286.14 405.673 286.125 405.298 286.125 404.878C286.125 404.458 286.185 404.023 286.29 403.558C286.395 403.093 286.56 402.643 286.77 402.208C286.98 401.773 287.235 401.383 287.52 401.008C287.82 400.648 288.15 400.348 288.54 400.123C288.915 399.898 289.26 399.778 289.56 399.763C289.86 399.733 290.115 399.793 290.325 399.928C290.535 400.063 290.7 400.243 290.82 400.513C290.94 400.768 291 401.068 291.015 401.383C291.03 401.533 291 401.683 290.925 401.833C290.85 401.983 290.775 402.088 290.7 402.133L289.8 402.658C289.68 402.733 289.59 402.733 289.53 402.703C289.47 402.658 289.41 402.613 289.335 402.553C289.26 402.493 289.17 402.463 289.05 402.463C288.93 402.448 288.765 402.523 288.525 402.658C288.285 402.793 288.09 402.973 287.91 403.198C287.73 403.423 287.64 403.708 287.64 404.023C287.64 404.173 287.67 404.293 287.7 404.368C287.745 404.443 287.82 404.488 287.94 404.503C288.06 404.518 288.225 404.503 288.45 404.473C288.66 404.443 288.945 404.383 289.29 404.308C289.98 404.173 290.475 404.293 290.76 404.698C291.045 405.103 291.195 405.718 291.195 406.543C291.195 406.963 291.135 407.398 291.015 407.863C290.895 408.328 290.73 408.778 290.505 409.213C290.28 409.648 290.01 410.068 289.68 410.443C289.35 410.818 288.99 411.118 288.585 411.358C288.165 411.598 287.805 411.718 287.49 411.733C287.175 411.748 286.905 411.673 286.695 411.523C286.47 411.373 286.305 411.163 286.185 410.878C286.065 410.593 286.005 410.293 285.99 409.963C285.975 409.813 286.005 409.663 286.08 409.513C286.14 409.363 286.215 409.258 286.305 409.213L287.205 408.688C287.325 408.628 287.415 408.613 287.475 408.688C287.535 408.748 287.595 408.823 287.67 408.913C287.745 409.003 287.85 409.048 287.985 409.063C288.12 409.078 288.315 409.018 288.585 408.868C288.705 408.793 288.825 408.718 288.945 408.613C289.065 408.508 289.185 408.403 289.29 408.283C289.395 408.163 289.485 408.028 289.56 407.878C289.635 407.743 289.665 407.593 289.665 407.428Z" fill="#FAFAFA"/>
<path d="M292.725 403.364C292.725 402.584 292.785 401.819 292.92 401.054C293.055 400.289 293.25 399.584 293.49 398.924C293.745 398.279 294.045 397.694 294.405 397.199C294.765 396.704 295.155 396.329 295.59 396.074C296.025 395.819 296.43 395.729 296.775 395.819C297.135 395.894 297.435 396.104 297.69 396.449C297.945 396.779 298.14 397.229 298.275 397.799C298.41 398.369 298.485 398.999 298.485 399.719V400.649C298.485 400.799 298.455 400.949 298.395 401.099C298.335 401.249 298.26 401.339 298.17 401.399L294.255 403.664C294.255 403.979 294.3 404.249 294.375 404.444C294.45 404.639 294.555 404.789 294.675 404.894C294.795 404.984 294.945 405.029 295.11 405.014C295.275 404.999 295.44 404.939 295.62 404.849C295.875 404.699 296.07 404.549 296.235 404.369C296.385 404.189 296.52 404.009 296.625 403.799C296.715 403.634 296.775 403.529 296.835 403.454C296.895 403.379 296.97 403.319 297.06 403.259L298.005 402.719C298.095 402.674 298.17 402.674 298.23 402.749C298.29 402.824 298.32 402.944 298.32 403.094C298.305 403.289 298.245 403.574 298.14 403.949C298.02 404.324 297.855 404.714 297.63 405.134C297.405 405.554 297.12 405.974 296.79 406.364C296.46 406.769 296.07 407.084 295.635 407.339C295.2 407.594 294.795 407.684 294.45 407.624C294.09 407.564 293.79 407.354 293.535 406.994C293.28 406.634 293.1 406.154 292.965 405.539C292.785 404.909 292.725 404.189 292.725 403.364ZM295.605 398.579C295.38 398.714 295.185 398.879 295.02 399.089C294.855 399.299 294.72 399.524 294.615 399.779C294.51 400.034 294.42 400.289 294.36 400.544C294.3 400.814 294.27 401.054 294.24 401.264L296.895 399.734C296.88 399.539 296.85 399.329 296.805 399.134C296.76 398.924 296.685 398.759 296.595 398.624C296.49 398.489 296.37 398.414 296.205 398.384C296.055 398.369 295.845 398.429 295.605 398.579Z" fill="#FAFAFA"/>
<path d="M303.195 394.394C302.73 394.664 302.385 395.039 302.175 395.534C301.965 396.029 301.86 396.689 301.86 397.514V402.929C301.86 403.079 301.83 403.229 301.77 403.379C301.71 403.529 301.635 403.619 301.545 403.679L300.66 404.189C300.57 404.234 300.495 404.219 300.435 404.144C300.375 404.069 300.345 403.949 300.345 403.799V394.094C300.345 393.944 300.375 393.794 300.435 393.644C300.495 393.494 300.57 393.404 300.66 393.344L301.545 392.834C301.635 392.789 301.71 392.789 301.77 392.879C301.83 392.954 301.86 393.074 301.86 393.224V393.704C302.07 393.254 302.28 392.864 302.505 392.564C302.73 392.249 303.03 391.979 303.42 391.769L303.945 391.469C304.035 391.424 304.11 391.439 304.17 391.514C304.23 391.589 304.26 391.709 304.26 391.859V393.239C304.26 393.389 304.23 393.539 304.17 393.689C304.11 393.839 304.035 393.929 303.945 393.989L303.195 394.394Z" fill="#FAFAFA"/>
<path d="M314.385 393.674C314.475 393.629 314.55 393.644 314.61 393.719C314.67 393.794 314.7 393.914 314.7 394.064V395.549C314.7 395.699 314.67 395.849 314.61 395.999C314.55 396.149 314.475 396.239 314.385 396.299L309.255 399.269C309.165 399.314 309.09 399.299 309.03 399.224C308.97 399.149 308.94 399.029 308.94 398.879V385.424C308.94 385.274 308.97 385.124 309.03 384.974C309.09 384.824 309.165 384.734 309.255 384.674L310.2 384.119C310.29 384.074 310.365 384.089 310.425 384.164C310.485 384.239 310.515 384.344 310.515 384.509V395.924L314.385 393.674Z" fill="#FAFAFA"/>
<path d="M318.99 382.573C319.425 382.318 319.815 382.213 320.16 382.258C320.505 382.288 320.805 382.438 321.06 382.723C321.315 382.993 321.525 383.353 321.675 383.833C321.825 384.298 321.915 384.853 321.945 385.468C321.96 385.588 321.96 385.738 321.96 385.948C321.96 386.143 321.96 386.338 321.96 386.533C321.96 386.728 321.96 386.923 321.96 387.103C321.96 387.283 321.96 387.448 321.945 387.583C321.915 388.243 321.825 388.888 321.675 389.533C321.525 390.178 321.33 390.778 321.075 391.333C320.82 391.888 320.52 392.383 320.175 392.818C319.83 393.253 319.44 393.598 319.005 393.838C318.57 394.078 318.18 394.198 317.835 394.153C317.49 394.123 317.19 393.973 316.935 393.703C316.68 393.448 316.485 393.073 316.335 392.608C316.185 392.143 316.095 391.588 316.065 390.973C316.065 390.853 316.05 390.703 316.05 390.508C316.05 390.328 316.05 390.133 316.05 389.938C316.05 389.743 316.05 389.548 316.05 389.353C316.05 389.158 316.065 388.993 316.065 388.858C316.095 388.198 316.185 387.553 316.335 386.908C316.485 386.263 316.695 385.663 316.95 385.093C317.205 384.523 317.505 384.028 317.85 383.593C318.165 383.158 318.555 382.828 318.99 382.573ZM320.4 386.443C320.37 386.023 320.325 385.708 320.235 385.468C320.145 385.243 320.04 385.078 319.905 384.988C319.77 384.898 319.635 384.868 319.47 384.898C319.32 384.928 319.155 384.988 318.99 385.078C318.825 385.168 318.675 385.303 318.51 385.453C318.36 385.603 318.21 385.798 318.075 386.053C317.94 386.293 317.835 386.593 317.745 386.923C317.655 387.253 317.595 387.643 317.58 388.093C317.565 388.213 317.565 388.348 317.565 388.528C317.565 388.693 317.55 388.873 317.55 389.053C317.55 389.233 317.55 389.413 317.565 389.578C317.565 389.743 317.58 389.878 317.58 389.983C317.61 390.403 317.655 390.718 317.745 390.958C317.835 391.198 317.94 391.348 318.075 391.438C318.21 391.528 318.345 391.558 318.51 391.528C318.66 391.498 318.825 391.438 318.99 391.348C319.155 391.258 319.32 391.138 319.47 390.973C319.62 390.823 319.77 390.628 319.905 390.373C320.04 390.133 320.145 389.833 320.235 389.503C320.325 389.173 320.385 388.783 320.4 388.333C320.4 388.228 320.415 388.093 320.415 387.913C320.415 387.733 320.415 387.568 320.415 387.373C320.415 387.193 320.415 387.028 320.415 386.848C320.415 386.683 320.415 386.548 320.4 386.443Z" fill="#FAFAFA"/>
<path d="M326.52 391.348C326.685 391.258 326.85 391.108 327.03 390.928C327.195 390.733 327.36 390.508 327.495 390.238C327.63 389.968 327.75 389.653 327.84 389.293C327.93 388.948 327.975 388.573 327.975 388.168V387.403C327.915 387.568 327.825 387.748 327.735 387.958C327.63 388.168 327.51 388.378 327.36 388.573C327.21 388.783 327.045 388.978 326.85 389.173C326.655 389.368 326.445 389.533 326.205 389.668C325.815 389.893 325.455 389.968 325.14 389.878C324.825 389.788 324.555 389.578 324.33 389.263C324.105 388.948 323.925 388.528 323.805 388.003C323.67 387.493 323.61 386.908 323.58 386.278C323.565 386.068 323.565 385.828 323.565 385.558C323.565 385.288 323.565 385.033 323.58 384.823C323.595 384.178 323.67 383.518 323.805 382.858C323.94 382.198 324.105 381.568 324.33 380.998C324.555 380.413 324.825 379.903 325.14 379.453C325.455 379.003 325.815 378.658 326.205 378.433C326.445 378.298 326.67 378.208 326.85 378.178C327.045 378.148 327.21 378.163 327.36 378.193C327.51 378.238 327.63 378.298 327.735 378.388C327.84 378.478 327.915 378.568 327.975 378.658V378.178C327.975 378.028 328.005 377.878 328.065 377.728C328.125 377.578 328.2 377.488 328.29 377.428L329.175 376.918C329.265 376.873 329.34 376.888 329.4 376.963C329.46 377.038 329.49 377.158 329.49 377.308V387.073C329.49 388.753 329.22 390.178 328.695 391.333C328.17 392.488 327.435 393.343 326.505 393.868C326.115 394.093 325.74 394.213 325.395 394.228C325.05 394.243 324.765 394.153 324.51 393.988C324.255 393.823 324.06 393.583 323.91 393.268C323.76 392.953 323.685 392.593 323.67 392.188C323.655 392.038 323.685 391.888 323.76 391.738C323.82 391.588 323.895 391.483 323.985 391.438L324.78 390.973C324.885 390.913 324.975 390.928 325.065 391.003C325.14 391.093 325.215 391.168 325.26 391.258C325.365 391.438 325.5 391.543 325.68 391.603C325.875 391.648 326.145 391.558 326.52 391.348ZM325.11 384.073C325.08 384.478 325.08 384.868 325.11 385.243C325.155 386.113 325.32 386.683 325.575 386.923C325.845 387.163 326.16 387.178 326.55 386.953C326.94 386.728 327.255 386.338 327.51 385.783C327.765 385.228 327.93 384.568 327.96 383.788C327.975 383.578 327.99 383.308 327.99 382.978C327.99 382.663 327.975 382.393 327.96 382.198C327.915 381.493 327.765 381.013 327.51 380.743C327.255 380.473 326.925 380.458 326.55 380.683C326.175 380.908 325.845 381.283 325.575 381.838C325.32 382.408 325.155 383.143 325.11 384.073Z" fill="#FAFAFA"/>
<path d="M332.97 370.753C333.06 370.708 333.135 370.708 333.195 370.783C333.255 370.858 333.285 370.978 333.285 371.128V372.748C333.285 372.898 333.255 373.048 333.195 373.198C333.135 373.348 333.06 373.438 332.97 373.498L331.965 374.083C331.875 374.128 331.8 374.113 331.74 374.038C331.68 373.963 331.65 373.843 331.65 373.693V372.073C331.65 371.923 331.68 371.773 331.74 371.623C331.8 371.473 331.875 371.383 331.965 371.323L332.97 370.753ZM333.225 384.838C333.225 384.988 333.195 385.138 333.135 385.288C333.075 385.438 333 385.528 332.91 385.588L332.025 386.098C331.935 386.143 331.86 386.128 331.8 386.053C331.74 385.978 331.71 385.873 331.71 385.708V376.003C331.71 375.853 331.74 375.703 331.8 375.553C331.86 375.403 331.935 375.313 332.025 375.253L332.91 374.743C333 374.698 333.075 374.713 333.135 374.788C333.195 374.863 333.225 374.968 333.225 375.133V384.838Z" fill="#FAFAFA"/>
<path d="M341.145 380.264C341.145 380.414 341.115 380.564 341.055 380.714C340.995 380.864 340.92 380.954 340.83 381.014L339.945 381.524C339.855 381.569 339.78 381.554 339.72 381.479C339.66 381.404 339.63 381.284 339.63 381.134V375.839C339.63 374.999 339.525 374.399 339.3 374.024C339.075 373.649 338.745 373.589 338.295 373.859C337.875 374.099 337.56 374.534 337.32 375.179C337.08 375.809 336.96 376.559 336.96 377.384V382.679C336.96 382.829 336.93 382.979 336.87 383.129C336.81 383.279 336.735 383.369 336.645 383.429L335.76 383.939C335.67 383.984 335.595 383.969 335.535 383.894C335.475 383.819 335.445 383.699 335.445 383.549V373.844C335.445 373.694 335.475 373.544 335.535 373.394C335.595 373.244 335.67 373.154 335.76 373.094L336.645 372.584C336.735 372.539 336.81 372.539 336.87 372.629C336.93 372.704 336.96 372.824 336.96 372.974V373.454C337.17 372.974 337.395 372.539 337.68 372.149C337.95 371.759 338.28 371.444 338.655 371.234C339.135 370.964 339.525 370.859 339.855 370.934C340.17 371.009 340.44 371.219 340.62 371.549C340.815 371.879 340.95 372.314 341.04 372.854C341.115 373.394 341.16 373.994 341.16 374.654V380.264H341.145Z" fill="#FAFAFA"/>
<path d="M416.805 336.599L402.24 345.014L404.505 324.584C402.765 323.669 401.655 321.389 401.655 318.134C401.655 312.329 405.18 305.594 409.53 303.074C413.88 300.569 417.405 303.224 417.405 309.029C417.405 312.284 416.295 315.839 414.555 318.764L416.805 336.599Z" fill="#455A64"/>
<path d="M416.805 336.598L403.995 329.203L402.24 345.013L416.805 336.598Z" fill="#37474F"/>
<path d="M409.53 303.074C406.68 304.724 404.19 308.174 402.81 311.999L414.555 318.779C416.295 315.839 417.405 312.299 417.405 309.044C417.405 303.224 413.88 300.569 409.53 303.074Z" fill="#37474F"/>
<path d="M338.7 235.049C333.72 232.169 326.835 232.574 319.215 236.969C304.005 245.744 291.675 267.104 291.675 284.669C291.675 293.474 294.78 299.654 299.805 302.519C301.11 303.269 308.19 307.379 309.51 308.144C314.49 311.024 321.375 310.619 328.98 306.224C344.19 297.449 356.52 276.089 356.52 258.524C356.52 249.749 353.445 243.584 348.465 240.704" fill="#27DEBF"/>
<path d="M328.98 242.623C313.77 251.413 301.44 272.758 301.44 290.323C301.44 307.888 313.77 314.998 328.98 306.223C344.19 297.448 356.535 276.088 356.52 258.523C356.505 240.973 344.175 233.848 328.98 242.623Z" fill="#27DEBF"/>
<path d="M344.175 281.594V283.604C340.26 290.294 334.89 296.129 328.965 299.534C323.04 302.954 317.685 303.329 313.755 301.139V296.984C313.755 288.959 319.2 279.539 326.145 275.519L330.15 273.224C333.705 271.169 337.14 270.914 339.84 272.474C342.615 274.064 344.175 277.379 344.175 281.594Z" fill="#27DEBF"/>
<path opacity="0.4" d="M338.7 235.049L348.465 240.704C343.485 237.824 336.6 238.229 328.995 242.624C319.035 248.384 310.32 259.529 305.475 271.469L295.71 265.814C300.54 253.874 309.27 242.729 319.23 236.984C326.835 232.589 333.72 232.169 338.7 235.049Z" fill="white"/>
<path opacity="0.2" d="M309.15 307.935C307.425 306.945 301.02 303.21 299.805 302.52C294.795 299.655 291.675 293.475 291.675 284.67L301.44 290.325C301.44 298.89 304.38 304.98 309.15 307.935Z" fill="black"/>
<path opacity="0.1" d="M295.695 265.814L305.46 271.469C302.91 277.769 301.44 284.279 301.44 290.324L291.675 284.669C291.675 278.609 293.16 272.099 295.695 265.814Z" fill="black"/>
<path d="M325.515 272.279C324.555 272.279 323.67 272.054 322.86 271.589C321 270.524 319.98 268.394 319.98 265.619C319.98 260.534 323.43 254.549 327.84 251.999C330.24 250.604 332.58 250.439 334.455 251.504C336.315 252.569 337.335 254.699 337.335 257.474C337.335 262.559 333.885 268.544 329.475 271.094C328.11 271.889 326.76 272.279 325.515 272.279Z" fill="white"/>
<path d="M339.855 272.474C337.155 270.914 333.705 271.169 330.165 273.224L326.16 275.519C319.215 279.539 313.77 288.974 313.77 296.984V301.139C317.685 303.314 323.055 302.939 328.98 299.534C334.89 296.129 340.26 290.294 344.19 283.604V281.594C344.175 277.379 342.615 274.064 339.855 272.474Z" fill="white"/>
<path d="M648.225 531.974C648.225 531.974 650.22 514.454 658.935 500.864C667.65 487.274 679.62 478.784 690.795 477.899C701.97 477.014 710.985 487.289 699.03 494.354C687.075 501.419 665.835 508.619 656.07 535.019L648.225 531.974Z" fill="#27DEBF"/>
<path opacity="0.1" d="M648.225 531.974C648.225 531.974 650.22 514.454 658.935 500.864C667.65 487.274 679.62 478.784 690.795 477.899C701.97 477.014 710.985 487.289 699.03 494.354C687.075 501.419 665.835 508.619 656.07 535.019L648.225 531.974Z" fill="black"/>
<path d="M651.51 527.415C651.465 527.415 651.435 527.4 651.39 527.385C651.09 527.265 650.94 526.92 651.06 526.605C662.85 497.565 685.29 485.445 695.52 483.09C695.835 483.015 696.165 483.21 696.24 483.54C696.315 483.855 696.12 484.185 695.79 484.26C685.77 486.57 663.78 498.48 652.17 527.055C652.065 527.325 651.78 527.475 651.51 527.415Z" fill="white"/>
<path d="M711.18 527.76C710.175 530.04 707.685 531.225 705.36 532.155C703.05 533.085 700.53 534.09 699.285 536.25C696.765 540.6 700.905 546.735 698.19 550.965C697.05 552.75 694.935 553.68 692.865 554.055C691.14 554.385 689.385 554.37 687.63 554.52C686.79 554.505 685.95 554.445 685.14 554.325C682.74 553.98 680.13 553.86 677.94 555.09C674.475 557.04 673.41 561.405 671.31 564.78C668.79 568.815 664.335 571.455 659.655 572.1C658.095 572.31 655.2 572.58 653.625 571.695C653.505 571.62 653.4 571.56 653.295 571.485C653.28 571.485 653.28 571.47 653.265 571.455C653.055 571.215 652.77 570.9 652.65 570.72C652.62 570.69 652.605 570.66 652.59 570.615C651.975 568.35 652.98 566.01 653.025 563.67C653.025 563.52 653.025 563.385 653.025 563.25C652.935 560.535 652.845 557.835 652.785 555.135C652.665 550.155 652.605 545.175 652.635 540.195C652.665 536.955 652.275 533.415 653.655 530.37C655.17 527.025 658.935 526.95 660.36 523.65C660.93 522.345 661.23 520.935 661.785 519.615C663.435 515.73 667.425 512.925 671.655 512.73C678.24 512.4 684.135 517.725 690.72 517.245C692.415 517.11 694.08 516.6 695.76 516.285C701.085 515.28 707.25 516.81 710.25 521.31C711.495 523.215 712.095 525.69 711.18 527.76Z" fill="#27DEBF"/>
<path d="M652.05 560.28C652.035 560.28 652.02 560.28 652.005 560.265C651.705 560.19 651.525 559.875 651.615 559.575C660.705 525.464 696.66 520.53 705.06 521.13C705.36 521.16 705.6 521.415 705.585 521.73C705.57 522.045 705.3 522.27 704.985 522.255C696.765 521.655 661.605 526.485 652.695 559.86C652.62 560.16 652.335 560.325 652.05 560.28Z" fill="white"/>
<path d="M691.995 542.985C691.89 542.97 691.785 542.911 691.695 542.836C691.605 542.746 682.44 533.7 667.23 535.95C666.93 535.995 666.645 535.786 666.585 535.471C666.54 535.171 666.75 534.87 667.065 534.825C682.86 532.5 692.4 541.935 692.49 542.04C692.715 542.265 692.7 542.611 692.49 542.836C692.355 542.971 692.175 543.03 691.995 542.985Z" fill="white"/>
<path d="M565.68 120.015L570.45 121.845V111.33C570.45 102.99 577.095 100.995 584.325 105.165C591.54 109.335 597.39 119.475 597.39 127.8V129.33C599.025 128.67 601.14 128.925 603.45 130.26C608.64 133.26 612.855 140.55 612.855 146.55V147.24L619.515 151.08C622.935 153.06 625.71 157.86 625.71 161.805C625.71 165.75 622.935 167.355 619.515 165.375L565.665 134.28C562.245 132.3 559.47 127.5 559.47 123.555C559.485 119.64 562.245 118.035 565.68 120.015Z" fill="#E6E6E6"/>
<path d="M629.565 111.69L638.22 116.685C638.175 116.295 638.145 115.92 638.145 115.545V113.04C638.145 108.585 641.28 106.77 645.135 109.005C646.695 109.905 648.135 111.345 649.305 113.01C649.935 107.4 654.345 105.315 659.685 108.39C665.46 111.72 670.155 119.85 670.155 126.525V130.275C670.155 132 669.84 133.455 669.27 134.625L676.455 138.78C678.6 140.025 680.34 143.025 680.34 145.5C680.34 147.975 678.6 148.98 676.455 147.735L629.565 120.66C627.42 119.43 625.68 116.415 625.68 113.94C625.68 111.465 627.42 110.46 629.565 111.69Z" fill="#E6E6E6"/>
<path d="M596.055 339.346C589.755 349.996 583.695 359.251 579.435 363.691C571.35 367.456 552.36 373.231 544.935 374.191C543.615 374.356 542.295 374.026 541.2 373.306C538.275 371.386 536.025 371.086 532.935 370.021C530.52 369.181 529.5 368.041 529.05 368.476C528.465 369.046 527.835 370.636 529.305 372.301C530.04 373.141 531.39 374.041 533.115 375.151C533.115 375.151 527.805 376.561 523.065 375.316C516.63 373.621 513.6 376.726 517.95 383.701C519.51 386.206 525.645 390.211 538.065 389.131C541.65 388.816 546.81 388.516 551.265 387.571C563.19 385.021 576.435 382.561 584.58 380.131C586.635 379.516 590.31 377.146 592.485 374.641C606.18 359.026 610.725 347.896 616.725 337.786L616.2 321.256C606.51 320.971 601.32 330.436 596.055 339.346Z" fill="#FFA8A7"/>
<path d="M617.895 320.97C617.895 320.97 609.42 319.17 603.045 327.315C596.37 335.85 584.58 356.34 584.58 356.34C584.58 356.34 588.45 366.615 598.86 368.31L615.585 345.72C615.585 345.72 623.505 330.09 617.895 320.97Z" fill="#455A64"/>
<path d="M654.06 551.311H643.155V570.751H654.06V551.311Z" fill="#FFA8A7"/>
<path d="M616.26 550.26L605.37 550.65L604.815 530.085L616.26 529.695V550.26Z" fill="#FFA8A7"/>
<path d="M655.59 383.025C655.59 393.87 654 481.125 654 481.125C654.255 484.245 657.06 489.99 656.46 501.975C655.635 518.25 654.54 561.03 654.54 561.03C654.54 561.03 649.245 564.255 642.405 561.285C642.405 561.285 633.57 501.345 631.62 485.22C629.91 471.135 625.545 424.44 625.545 424.44L619.635 479.55C619.635 479.55 621.645 487.95 620.985 497.595C620.475 505.05 616.965 543.915 616.965 543.915C616.965 543.915 611.835 547.545 604.38 544.92C604.38 544.92 598.185 486.405 598.05 479.55C597.9 471.75 601.68 382.92 601.68 382.92L655.59 383.025Z" fill="#37474F"/>
<path d="M643.155 565.139V563.519C642.105 563.999 639.69 573.629 635.37 577.724C631.935 580.994 627.24 584.759 626.055 588.404C624.81 592.199 632.58 594.284 635.805 593.684C639.54 592.994 646.005 590.264 647.625 587.714C649.245 585.179 650.01 581.429 651.33 579.569C652.65 577.709 655.695 575.639 656.4 573.479C656.79 572.294 656.325 569.714 655.77 567.524C655.26 565.514 654.72 563.309 654.06 563.504C654.06 563.744 654.06 564.749 654.06 564.749C653.265 565.664 651.075 566.564 648.615 566.669C647.01 566.729 643.14 566.399 643.155 565.139Z" fill="#263238"/>
<path d="M605.25 547.156C604.68 547.171 604.23 548.011 602.97 549.421C601.455 551.116 598.995 552.961 596.55 554.221C592.47 556.351 584.535 559.621 580.935 561.301C578.685 562.351 578.79 565.171 581.115 566.776C583.44 568.381 589.035 569.536 595.755 567.976C599.415 567.121 604.185 563.596 607.2 563.791C610.215 563.986 615.87 563.941 618.09 562.336C620.325 560.731 619.425 557.326 618.795 554.386C618.105 551.176 617.25 546.181 616.23 546.406V547.516C614.925 549.586 608.16 550.426 605.28 548.896L605.25 547.156Z" fill="#263238"/>
<path d="M625.515 424.425C625.515 424.425 616.8 421.875 610.335 415.365C610.335 415.365 613.26 421.08 621.975 426.39L620.115 475.605L625.515 424.425Z" fill="#263238"/>
<path d="M649.485 322.591C649.485 322.591 658.455 324.661 657.84 340.921L655.95 366.811L655.995 405.661C647.985 414.751 612.435 414.076 600.27 404.941C600.27 404.941 601.65 358.966 602.475 341.281C603.06 328.711 605.955 322.366 618.315 320.986L633.51 321.661L649.485 322.591Z" fill="#27DEBF"/>
<path d="M638.04 288.811C638.04 298.141 630.78 305.716 621.81 305.716C612.84 305.716 607.545 297.946 605.58 288.811C601.995 272.116 612.84 271.906 621.81 271.906C630.765 271.906 638.04 279.466 638.04 288.811Z" fill="#263238"/>
<path d="M646.32 295.637C646.32 295.637 643.83 307.817 642.84 309.812C641.835 311.807 639.78 312.377 639.78 312.377L639.96 303.812L646.32 295.637Z" fill="#263238"/>
<path d="M643.185 278.19C643.185 278.19 644.97 277.74 646.86 280.71C648.48 283.245 648.855 288.96 646.305 295.65L641.61 296.205L643.185 278.19Z" fill="#263238"/>
<path d="M644.91 280.665L650.655 280.77C650.79 279.12 649.62 277.755 648.03 277.725C646.455 277.695 645.06 279.015 644.91 280.665Z" fill="#263238"/>
<path d="M645.615 279.301L649.875 275.206C648.825 273.991 647.025 273.916 645.84 275.041C644.67 276.166 644.565 278.071 645.615 279.301Z" fill="#263238"/>
<path d="M640.215 296.206C641.16 296.791 642.495 294.916 643.65 293.641C644.805 292.381 648.45 291.181 650.34 295.321C652.26 299.551 649.005 303.556 646.305 304.906C641.46 307.306 639.93 303.811 639.93 303.811L639.54 323.101C632.715 333.646 617.28 333.271 622.83 322.591L622.845 316.726C622.845 316.726 618.195 317.461 615.915 317.101C612.135 316.486 609.765 313.396 608.61 309.136C606.765 302.296 606.075 296.776 607.635 283.321C609.345 268.576 625.815 268.426 634.695 274.261C643.605 280.081 640.215 296.206 640.215 296.206Z" fill="#FFA8A7"/>
<path d="M619.695 281.026C623.625 280.636 627.51 279.826 631.455 279.541C632.31 279.481 633.18 279.436 634.005 279.661C637.02 280.471 636.63 283.981 637.11 286.441C637.935 290.671 638.625 297.826 640.215 297.856C640.695 297.871 642.48 294.751 643.65 293.656C644.415 292.936 644.535 291.391 644.7 290.431C645 288.676 645.165 286.906 645.3 285.136C645.42 283.636 645.57 282.121 645.555 280.606C645.555 278.926 645.585 277.201 645.165 275.551C644.79 274.051 644.085 272.941 643.065 271.771C642.96 271.666 642.87 271.546 642.765 271.441C640.83 269.356 638.355 267.781 635.73 266.701C631.965 265.141 627.87 264.526 623.82 264.106C619.77 263.686 615.675 263.461 611.685 262.651C611.445 262.606 611.205 262.561 610.98 262.636C610.635 262.771 610.485 263.176 610.41 263.536C610.05 265.381 610.89 267.406 612.45 268.471C609.735 268.681 606.615 267.271 603.99 266.566C603.555 266.446 603.045 266.341 602.655 266.566C602.385 266.731 602.22 267.031 602.13 267.331C601.905 268.021 601.95 268.786 602.055 269.506C602.34 271.651 603.075 273.766 604.395 275.476C606.3 277.936 609.42 280.156 612.495 280.771C614.94 281.266 617.205 281.266 619.695 281.026Z" fill="#263238"/>
<path d="M622.86 316.742C622.86 316.742 631.29 314.972 634.245 313.337C636.225 312.242 637.845 310.352 638.325 309.137C638.325 309.137 637.77 311.747 636.015 314.087C633.855 316.952 622.875 319.067 622.875 319.067L622.86 316.742Z" fill="#F28F8F"/>
<path d="M624.885 294.016C624.885 295.021 625.635 295.846 626.58 295.846C627.51 295.846 628.275 295.021 628.275 294.016C628.275 293.011 627.525 292.186 626.58 292.186C625.635 292.186 624.885 292.996 624.885 294.016Z" fill="#263238"/>
<path d="M627.585 286.726L631.2 288.796C631.74 287.716 631.35 286.366 630.36 285.796C629.37 285.226 628.125 285.646 627.585 286.726Z" fill="#263238"/>
<path d="M623.61 306.164L619.755 307.664C620.13 308.819 621.315 309.404 622.38 308.999C623.445 308.594 624 307.319 623.61 306.164Z" fill="#F28F8F"/>
<path d="M609.375 288.27L612.675 285.63C612 284.64 610.725 284.445 609.81 285.165C608.895 285.9 608.715 287.295 609.375 288.27Z" fill="#263238"/>
<path d="M610.83 293.506C610.83 294.511 611.58 295.336 612.525 295.336C613.455 295.336 614.22 294.511 614.22 293.506C614.22 292.501 613.47 291.676 612.525 291.676C611.58 291.676 610.83 292.501 610.83 293.506Z" fill="#263238"/>
<path d="M619.875 292.096L619.68 302.761L613.62 301.381L619.875 292.096Z" fill="#F28F8F"/>
<path d="M475.965 381.422L485.37 375.992L489.09 371.477L479.7 376.907L475.965 381.422Z" fill="#27DEBF"/>
<path opacity="0.4" d="M475.965 381.422L485.37 375.992L489.09 371.477L479.7 376.907L475.965 381.422Z" fill="black"/>
<path d="M501.54 396.182L510.945 390.752L518.79 383.807L509.4 389.222L501.54 396.182Z" fill="#27DEBF"/>
<path opacity="0.4" d="M501.54 396.182L510.945 390.752L518.79 383.807L509.4 389.222L501.54 396.182Z" fill="black"/>
<path d="M581.43 414.916C583.485 417.541 584.985 421.381 585.315 425.146C583.26 422.521 581.76 418.681 581.43 414.916ZM603.285 415.201C600.12 393.676 588.555 372.376 574.77 364.426C568.155 360.601 562.035 360.466 557.13 363.331C555.69 364.171 550.38 367.231 548.28 368.431C548.115 368.521 547.935 368.611 547.785 368.731C547.395 368.941 547.02 369.196 546.645 369.451C545.94 369.946 545.25 370.501 544.605 371.131C544.515 371.206 544.425 371.311 544.305 371.401C544.02 371.686 543.75 371.986 543.495 372.301C543.165 372.676 542.85 373.051 542.55 373.456C541.935 374.266 541.35 375.151 540.825 376.111C540.57 376.576 540.3 377.071 540.06 377.581L462.78 332.971L453.39 338.386V344.371L454.185 344.836L454.92 345.271V346.531L453.375 347.431V350.911L464.73 374.941L475.95 381.436L479.685 376.921L489.585 382.846L495.27 392.596L501.525 396.211L509.37 389.251L519.015 394.816L522.255 408.166L538.395 417.481C539.205 420.901 540.24 424.246 541.455 427.516C541.56 427.861 541.68 428.191 541.83 428.566C547.2 442.681 555.735 454.756 565.365 460.321C566.595 461.026 567.795 461.611 568.995 462.061C569.67 462.346 570.345 462.556 571.02 462.736C571.62 462.901 572.22 463.051 572.82 463.141C574.815 463.501 576.735 463.486 578.535 463.126C578.79 463.066 579.06 463.006 579.315 462.946C579.69 462.871 580.05 462.766 580.41 462.616C580.68 462.511 580.965 462.406 581.25 462.286C581.55 462.181 581.835 462.046 582.12 461.881C582.39 461.761 582.66 461.626 582.915 461.461C583.05 461.386 583.185 461.311 583.32 461.236C583.38 461.221 583.44 461.176 583.5 461.131C585.645 459.901 590.94 456.841 592.365 456.031C599.505 451.891 604.125 441.421 604.125 426.631C604.14 422.836 603.855 419.011 603.285 415.201Z" fill="#27DEBF"/>
<path d="M578.685 433.08C574.98 430.935 571.965 424.575 571.965 418.875C571.965 413.175 574.965 410.28 578.685 412.41C582.39 414.555 585.39 420.915 585.39 426.615C585.39 432.33 582.39 435.225 578.685 433.08ZM593.88 420.615C590.715 399.105 579.15 377.805 565.365 369.855C558.975 366.165 553.08 365.895 548.265 368.43C548.1 368.52 547.92 368.61 547.77 368.73C547.38 368.94 547.005 369.195 546.63 369.45C545.925 369.945 545.235 370.5 544.59 371.13C544.5 371.205 544.41 371.31 544.29 371.4C544.005 371.685 543.735 371.985 543.48 372.3C543.15 372.675 542.835 373.05 542.535 373.455C541.92 374.265 541.335 375.15 540.81 376.11C540.555 376.575 540.285 377.07 540.045 377.58C538.77 380.205 537.75 383.25 537.075 386.715L453.39 338.385V344.37L454.185 344.835L454.92 345.27V346.53L453.375 347.43V350.91L464.73 374.94L475.95 381.435L479.685 376.92L489.585 382.845L495.27 392.595L501.525 396.21L509.37 389.25L519.015 394.815L522.255 408.165L538.395 417.48C539.205 420.9 540.24 424.245 541.455 427.515C541.56 427.86 541.68 428.19 541.83 428.565C547.2 442.68 555.735 454.755 565.365 460.32C566.595 461.025 567.795 461.61 568.995 462.06C569.67 462.345 570.345 462.555 571.02 462.735C571.62 462.9 572.22 463.05 572.82 463.14C574.815 463.5 576.735 463.485 578.535 463.125C578.79 463.065 579.06 463.005 579.315 462.945C579.69 462.87 580.05 462.765 580.41 462.615C580.68 462.51 580.965 462.405 581.25 462.285C581.55 462.18 581.835 462.045 582.12 461.88C582.39 461.76 582.66 461.625 582.915 461.46C583.05 461.385 583.185 461.31 583.32 461.235C583.38 461.22 583.44 461.175 583.5 461.13C590.34 456.81 594.735 446.49 594.735 432.045C594.75 428.265 594.435 424.44 593.88 420.615Z" fill="#27DEBF"/>
<path opacity="0.4" d="M585.39 426.616C585.39 432.316 582.39 435.226 578.685 433.081C574.965 430.936 571.965 424.591 571.965 418.876C571.965 413.161 574.965 410.266 578.685 412.411C579.675 412.981 580.62 413.851 581.43 414.931C581.76 418.681 583.26 422.536 585.315 425.161C585.375 425.641 585.39 426.136 585.39 426.616Z" fill="black"/>
<path opacity="0.4" d="M604.14 426.601C604.14 441.406 599.52 451.876 592.38 456.001C590.94 456.812 585.66 459.871 583.515 461.101C590.355 456.781 594.75 446.462 594.75 432.017C594.75 428.252 594.435 424.426 593.88 420.601C590.715 399.091 579.15 377.791 565.365 369.841C558.975 366.151 553.08 365.881 548.265 368.416C550.365 367.216 555.675 364.142 557.115 363.317C562.02 360.452 568.14 360.586 574.755 364.411C588.54 372.361 600.105 393.662 603.27 415.187C603.855 419.012 604.14 422.836 604.14 426.601Z" fill="white"/>
<path d="M594.75 432.03C594.75 446.475 590.355 456.795 583.515 461.115C585.66 459.885 590.955 456.825 592.38 456.015C599.52 451.875 604.14 441.405 604.14 426.615C604.14 426.075 604.125 425.52 604.11 424.965C600.885 426.825 597.615 428.715 594.72 430.38C594.735 430.935 594.75 431.475 594.75 432.03Z" fill="#27DEBF"/>
<path opacity="0.1" d="M594.75 432.03C594.75 446.475 590.355 456.795 583.515 461.115C585.66 459.885 590.955 456.825 592.38 456.015C599.52 451.875 604.14 441.405 604.14 426.615C604.14 426.075 604.125 425.52 604.11 424.965C600.885 426.825 597.615 428.715 594.72 430.38C594.735 430.935 594.75 431.475 594.75 432.03Z" fill="black"/>
<path opacity="0.15" d="M537.42 392.881V395.926L453.39 347.416L454.935 346.531V345.256L537.42 392.881Z" fill="black"/>
<path opacity="0.15" d="M537.42 394.14V395.925L453.39 347.415L454.935 346.53V346.5L537.42 394.14Z" fill="black"/>
<path opacity="0.15" d="M577.559 454.785C589.272 451.191 593.314 430.505 586.586 408.583C579.858 386.661 564.908 371.804 553.195 375.399C541.482 378.994 537.44 399.679 544.168 421.601C550.896 443.523 565.846 458.38 577.559 454.785Z" stroke="black" stroke-miterlimit="10"/>
<path opacity="0.4" d="M540.06 377.581C538.785 380.206 537.765 383.251 537.09 386.716L453.405 338.386L462.795 332.971L540.06 377.581Z" fill="white"/>
<path d="M648.765 382.275C653.16 373.98 658.155 355.35 660.645 345.945C664.185 332.595 658.455 324.195 651.96 323.85C647.88 324.465 634.5 373.185 634.5 373.185C633.015 374.37 612.645 384.69 606.09 387.285C604.935 387.75 603.645 387.72 602.46 387.3C599.31 386.16 597.18 386.37 594.105 386.055C591.69 385.815 590.475 384.96 590.175 385.47C589.785 386.13 589.605 387.795 591.36 389.025C592.245 389.64 593.7 390.195 595.56 390.855C595.56 390.855 592.08 392.055 587.445 391.965C581.16 391.83 578.895 394.56 583.77 400.935C586.83 404.925 591.75 406.185 602.82 402.36C606.015 401.25 610.335 399.105 614.355 397.65C622.68 394.62 624.81 394.305 631.2 392.145C640.395 389.055 646.815 385.965 648.765 382.275Z" fill="#FFA8A7"/>
<path d="M649.485 322.59C653.31 323.115 657.03 323.985 659.25 327.075C661.47 330.165 663.33 334.53 661.11 346.515C658.89 358.5 654.3 371.22 654.3 371.22C654.3 371.22 645.39 375.03 635.925 365.37L642.435 340.2C642.435 340.2 643.545 323.85 649.485 322.59Z" fill="#455A64"/>
</svg>
